#!OML:ASF H:\charlestonDancing\Project 1\Capture day 1\Session 1\femaleDancer.ASF
:FULLY-SPECIFIED
:DEGREES
158
root -12.0033 17.3014 0.451097 195.705 -97.3589 -197.755
lowerback 7.56026 -3.78258 3.63548
upperback 1.26679 -4.72567 2.42748
thorax -3.00238 -2.40319 0.954695
lowerneck -0.338371 0.444218 2.44982
upperneck 2.83148 0.646634 -4.05694
head 0.958712 0.295611 -1.67343
rclavicle 8.0806e-014 -2.54444e-014
rhumerus -82.807 -44.8748 2.33149
rradius 9.90934
rwrist 99.5472
rhand -6.04605 -36.7247
rfingers 7.12502
rthumb 19.7881 -65.7374
lclavicle 8.0806e-014 -2.54444e-014
lhumerus -21.214 -8.22813 88.2657
lradius 64.6578
lwrist -13.9678
lhand -32.1092 11.4462
lfingers 7.12502
lthumb -5.35416 41.3586
rfemur -25.4913 -3.3796 28.9509
rtibia 37.1836
rfoot -8.91898 -6.20837
rtoes -12.877
lfemur 10.5391 -3.11518 -20.6558
ltibia 45.2829
lfoot 22.7732 0.212702
ltoes 0.809609
159
root -12.3788 17.3329 0.448459 200.16 -97.4934 -202.296
lowerback 7.81797 -3.79919 4.42133
upperback 1.24298 -4.66749 2.60394
thorax -3.21664 -2.3861 0.718358
lowerneck -0.193298 0.436374 2.56323
upperneck 2.41276 0.628944 -4.07251
head 0.803105 0.292688 -1.69661
rclavicle 2.48481e-016 -2.70347e-014
rhumerus -76.8847 -45.7514 -6.39717
rradius 9.91614
rwrist 93.4714
rhand -6.49686 -36.5709
rfingers 7.12502
rthumb 19.3547 -65.6277
lclavicle 2.48481e-016 -2.70347e-014
lhumerus -23.6298 -8.0504 89.0167
lradius 64.0075
lwrist -13.5148
lhand -30.9892 11.5088
lfingers 7.12502
lthumb -4.27267 41.4457
rfemur -24.0967 -4.16184 29.8478
rtibia 37.292
rfoot -10.2418 -5.85891
rtoes -13.1075
lfemur 7.35945 -3.73375 -19.7979
ltibia 50.4166
lfoot 30.2052 3.36954
ltoes 3.80241
160
root -12.7555 17.3729 0.432527 204.469 -97.7599 -206.712
lowerback 7.91807 -3.78586 5.11307
upperback 1.32382 -4.59143 2.77565
thorax -3.22549 -2.35779 0.510358
lowerneck 0.0691281 0.363022 2.45848
upperneck 1.81025 0.51808 -3.66576
head 0.564026 0.247114 -1.54601
rclavicle 3.97569e-015 6.36111e-015
rhumerus -70.8142 -46.135 -15.1921
rradius 10.0878
rwrist 87.424
rhand -7.26058 -36.4994
rfingers 7.12502
rthumb 18.6202 -65.6282
lclavicle 3.97569e-015 6.36111e-015
lhumerus -25.8559 -7.979 89.7166
lradius 63.1367
lwrist -13.0997
lhand -29.3534 11.9034
lfingers 7.12502
lthumb -2.69299 41.8661
rfemur -22.5053 -4.93159 30.7514
rtibia 37.1099
rfoot -11.4668 -5.58487
rtoes -12.3718
lfemur 4.11478 -4.31456 -18.7813
ltibia 55.0499
lfoot 36.2385 4.19158
ltoes 3.14274
161
root -13.1196 17.4074 0.414208 205.929 -98.2839 -208.19
lowerback 7.98511 -3.87748 5.57761
upperback 1.3779 -4.67347 2.89087
thorax -3.23554 -2.4047 0.386422
lowerneck 0.300891 0.241705 2.1848
upperneck 1.3042 0.346211 -3.13197
head 0.359991 0.167849 -1.32774
rclavicle 6.09772e-014 8.74653e-015
rhumerus -60.2774 -43.7753 -29.9106
rradius 10.4244
rwrist 76.8017
rhand -7.88784 -36.9729
rfingers 7.12502
rthumb 18.0168 -66.1585
lclavicle 6.09772e-014 8.74653e-015
lhumerus -27.8754 -7.79313 90.3636
lradius 61.8416
lwrist -13.0424
lhand -27.0835 11.9879
lfingers 7.12502
lthumb -0.500706 41.967
rfemur -20.9067 -5.97019 31.3157
rtibia 36.6317
rfoot -12.7066 -5.39168
rtoes -15.8467
lfemur 0.686264 -5.12707 -18.0402
ltibia 59.2485
lfoot 38.4676 3.14148
ltoes 2.31489
162
root -13.4766 17.4237 0.401148 210.604 -98.4042 -213.408
lowerback 8.60994 -3.78435 6.20166
upperback 1.54011 -4.45793 3.12972
thorax -3.43219 -2.3105 0.303266
lowerneck 0.560619 0.073943 1.79483
upperneck 1.01519 0.117386 -2.65267
head 0.220088 0.0567593 -1.10923
rclavicle 6.80837e-015 3.02153e-014
rhumerus -50.15 -38.6144 -44.202
rradius 11.1232
rwrist 65.11
rhand -10.1826 -37.1109
rfingers 7.12502
rthumb 15.8078 -66.4855
lclavicle 6.80837e-015 3.02153e-014
lhumerus -29.7957 -7.35359 91.0513
lradius 60.0225
lwrist -13.4759
lhand -23.7638 11.8512
lfingers 7.12502
lthumb 2.7055 41.8138
rfemur -18.6932 -6.46163 32.1352
rtibia 35.9761
rfoot -13.99 -4.98603
rtoes -10.5373
lfemur -2.04964 -5.26323 -17.0313
ltibia 62.9626
lfoot 35.5763 1.13649
ltoes 0.442077
163
root -13.8215 17.4469 0.377769 218.959 -98.5936 -222.135
lowerback 9.27035 -3.58039 7.03428
upperback 1.56837 -4.05257 3.56447
thorax -3.77529 -2.13209 0.29036
lowerneck 0.465143 -0.0847189 1.76997
upperneck 1.22338 -0.0929535 -2.58888
head 0.294655 -0.0497759 -1.08552
rclavicle 3.3197e-014 -3.10104e-014
rhumerus -42.2819 -31.6284 -55.8818
rradius 12.4045
rwrist 53.7947
rhand -11.0536 -37.557
rfingers 7.12502
rthumb 14.9689 -66.996
lclavicle 3.3197e-014 -3.10104e-014
lhumerus -31.7246 -6.67664 91.6616
lradius 57.8189
lwrist -14.3285
lhand -20.6841 11.6009
lfingers 7.12502
lthumb 5.67931 41.5048
rfemur -16.611 -6.26861 33.4812
rtibia 35.1191
rfoot -14.5126 -4.98457
rtoes -11.0344
lfemur -5.07551 -5.04632 -15.4484
ltibia 66.1267
lfoot 31.8726 -1.04518
ltoes -3.35977
164
root -14.1734 17.4461 0.364246 227.471 -98.5863 -231.094
lowerback 9.8281 -3.30349 7.86623
upperback 1.65879 -3.5566 3.79166
thorax -3.9986 -1.90712 0.0340893
lowerneck 0.497847 -0.158428 1.966
upperneck 1.37833 -0.188257 -2.5908
head 0.334538 -0.0968456 -1.1201
rclavicle -3.56322e-014 1.35174e-014
rhumerus -36.9345 -25.2661 -64.1235
rradius 13.9802
rwrist 45.4117
rhand -11.56 -37.9612
rfingers 7.12502
rthumb 14.481 -67.4359
lclavicle -3.56322e-014 1.35174e-014
lhumerus -33.6489 -5.84861 91.9082
lradius 55.2477
lwrist -15.4158
lhand -18.6754 10.9466
lfingers 7.12502
lthumb 7.61846 40.7893
rfemur -14.3048 -6.07524 34.5493
rtibia 34.1939
rfoot -15.3591 -4.65313
rtoes -10.203
lfemur -7.79592 -4.53765 -14.2275
ltibia 68.6193
lfoot 25.1061 -2.83872
ltoes -6.90785
165
root -14.5306 17.4652 0.35789 234.549 -98.5797 -238.304
lowerback 10.0712 -3.06925 8.67706
upperback 1.59023 -3.13063 3.81944
thorax -4.22002 -1.71732 -0.426159
lowerneck 0.911127 -0.228329 1.99517
upperneck 1.34673 -0.278422 -2.29009
head 0.254255 -0.138403 -1.02986
rclavicle 8.64713e-015 2.70347e-014
rhumerus -32.966 -19.3309 -70.333
rradius 15.5066
rwrist 39.2673
rhand -12.3746 -37.6043
rfingers 7.12502
rthumb 13.696 -67.1336
lclavicle 8.64713e-015 2.70347e-014
lhumerus -35.7066 -4.83573 91.8275
lradius 52.3281
lwrist -16.3584
lhand -17.5518 9.97983
lfingers 7.12502
lthumb 8.70291 39.7804
rfemur -12.2439 -6.17862 35.2221
rtibia 33.2659
rfoot -15.9765 -4.53989
rtoes -19.2876
lfemur -10.6076 -4.12282 -13.463
ltibia 70.2867
lfoot 18.0975 -3.72288
ltoes -12.9132
166
root -14.8866 17.4877 0.35165 243.144 -98.1746 -246.834
lowerback 9.63335 -2.64237 8.98465
upperback 1.86107 -2.61838 3.78894
thorax -3.66585 -1.45006 -0.7335
lowerneck 0.836149 -0.279089 2.17083
upperneck 1.32081 -0.346236 -2.24521
head 0.25711 -0.171432 -1.04586
rclavicle 2.34069e-014 -1.03368e-014
rhumerus -29.0059 -13.6187 -75.3785
rradius 16.9127
rwrist 34.638
rhand -14.411 -37.7461
rfingers 7.12502
rthumb 11.7328 -67.3975
lclavicle 2.34069e-014 -1.03368e-014
lhumerus -37.0953 -3.57605 91.4973
lradius 49.0887
lwrist -16.8904
lhand -17.3355 9.33603
lfingers 7.12502
lthumb 8.91162 39.1278
rfemur -10.4833 -5.90469 35.4938
rtibia 32.5408
rfoot -16.9974 -3.29881
rtoes -10.7699
lfemur -13.3745 -3.48742 -13.1241
ltibia 71.0901
lfoot 11.6331 -2.89811
ltoes -17.598
167
root -15.2335 17.5105 0.339682 251.85 -97.5468 -255.162
lowerback 9.12491 -2.18662 8.82581
upperback 1.94912 -2.10024 3.63973
thorax -3.24908 -1.17579 -0.895944
lowerneck 0.847902 -0.291845 2.2757
upperneck 1.32315 -0.362902 -2.1484
head 0.255486 -0.178849 -1.03343
rclavicle 1.08835e-014 -5.24792e-014
rhumerus -25.6536 -8.35931 -79.1842
rradius 18.3725
rwrist 31.7534
rhand -15.4408 -37.647
rfingers 7.12502
rthumb 10.7396 -67.3525
lclavicle 1.08835e-014 -5.24792e-014
lhumerus -38.5195 -2.05796 90.8935
lradius 45.6413
lwrist -17.0068
lhand -17.7158 9.40579
lfingers 7.12502
lthumb 8.54462 39.2129
rfemur -9.19141 -5.45541 35.3338
rtibia 31.9357
rfoot -17.5124 -2.63335
rtoes -11.5547
lfemur -16.3572 -3.06891 -13.2273
ltibia 71.0167
lfoot 6.15326 -0.977179
ltoes -18.1876
168
root -15.5748 17.5228 0.326749 261.588 -97.1336 -264.46
lowerback 8.75467 -1.77361 8.71796
upperback 1.9131 -1.60173 3.46115
thorax -3.04311 -0.919092 -1.09663
lowerneck 0.947025 -0.302612 2.45641
upperneck 1.34183 -0.374268 -2.11934
head 0.244362 -0.183192 -1.055
rclavicle -5.76476e-015 3.18055e-014
rhumerus -22.7075 -3.48439 -82.1295
rradius 19.8859
rwrist 29.8634
rhand -14.9313 -38.4091
rfingers 7.12502
rthumb 11.231 -68.0885
lclavicle -5.76476e-015 3.18055e-014
lhumerus -40.0387 -0.179475 89.903
lradius 42.0612
lwrist -16.9631
lhand -18.2815 10.1793
lfingers 7.12502
lthumb 7.99867 40.0079
rfemur -8.01956 -5.24201 35.1474
rtibia 31.4297
rfoot -18.2031 -1.80659
rtoes -11.7484
lfemur -19.2927 -2.78838 -13.2691
ltibia 70.1332
lfoot 1.61242 0.655645
ltoes -15.4081
